<?xml version="1.0" encoding="utf-8"?>
<!-- Generator: Adobe Illustrator 27.5.0, SVG Export Plug-In . SVG Version: 6.00 Build 0)  -->
<svg version="1.1" id="Layer_1" xmlns="http://www.w3.org/2000/svg" xmlns:xlink="http://www.w3.org/1999/xlink" x="0px" y="0px"
	 viewBox="0 0 192 50" style="enable-background:new 0 0 192 50;" xml:space="preserve">
<style type="text/css">
	.st0{fill:#87946B;}
</style>
<g>
	<path class="st0" d="M182.5,32.6c0,0,1.7,1.8,4.8,1.8c2.9,0,4.7-1.7,4.7-3.7c0-4-6-3.8-6-5.5c0-0.8,0.8-1.1,1.6-1.1
		c1.9,0,3,1.1,3,1.1l1.1-2.3c0,0-1.4-1.4-4.2-1.4c-2.7,0-4.7,1.3-4.7,3.6c0,4,6,3.7,6,5.6c0,0.7-0.8,1.1-1.6,1.1
		c-2,0-3.4-1.4-3.4-1.4L182.5,32.6z M169,29.8c0,3.4,1.7,4.7,4.3,4.7c2.1,0,3.7-1.3,4.3-2.6h0c0,0,0,0.4,0,0.9v1.4h3V21.8h-3.1v5.7
		c0,2.2-1.2,4.2-3.5,4.2c-1.5,0-1.9-1-1.9-2.5v-7.3H169V29.8z M155.1,29.6c0,4.2,3.4,4.7,5.1,4.7c0.6,0,0.9-0.1,0.9-0.1v-2.7
		c0,0-0.2,0-0.6,0c-0.8,0-2.5-0.3-2.5-2.3v-4.8h2.8V22h-2.8v-3.6h-3V22h-1.7v2.5h1.6V29.6z M145.1,34.2h3.1v-4.9
		c0-0.7,0.1-1.4,0.3-2c0.6-1.8,2.1-2.6,3.4-2.6c0.4,0,0.7,0,0.7,0v-3c0,0-0.3,0-0.6,0c-1.9,0-3.4,1.4-3.9,3.2h0c0,0,0-0.4,0-0.9
		v-2.1h-3V34.2z M132.5,28c0-2.3,1.7-3.9,3.7-3.9c2,0,3.7,1.6,3.7,3.9c0,2.3-1.7,3.9-3.7,3.9C134.2,31.8,132.5,30.3,132.5,28
		 M129.4,28c0,3.8,3,6.5,6.8,6.5c3.8,0,6.8-2.7,6.8-6.5c0-3.8-3-6.5-6.8-6.5C132.4,21.5,129.4,24.2,129.4,28 M118.7,28.1
		c0-2.7,1.5-3.9,3.1-3.9c1.8,0,3.1,1.5,3.1,3.9c0,2.5-1.4,3.8-3.1,3.8C119.7,31.9,118.7,30,118.7,28.1 M115.7,39h3.1v-5.2
		c0-0.6,0-1.1,0-1.1h0c0,0,1.1,1.7,3.5,1.7c3.3,0,5.7-2.5,5.7-6.5c0-3.8-2.1-6.5-5.5-6.5c-2.9,0-4,2-4,2h0c0,0,0-0.4,0-0.9v-0.9
		h-2.8V39z M104.2,28.1c0-2.7,1.5-3.9,3.1-3.9c1.8,0,3.1,1.5,3.1,3.9c0,2.5-1.4,3.8-3.1,3.8C105.3,31.9,104.2,30,104.2,28.1
		 M101.2,39h3.1v-5.2c0-0.6,0-1.1,0-1.1h0c0,0,1.1,1.7,3.5,1.7c3.3,0,5.7-2.5,5.7-6.5c0-3.8-2.1-6.5-5.5-6.5c-2.9,0-4,2-4,2h0
		c0,0,0-0.4,0-0.9v-0.9h-2.8V39z M86.8,29.8c0,3.4,1.7,4.7,4.3,4.7c2.1,0,3.7-1.3,4.3-2.6h0c0,0,0,0.4,0,0.9v1.4h3V21.8h-3.1v5.7
		c0,2.2-1.2,4.2-3.5,4.2c-1.5,0-1.9-1-1.9-2.5v-7.3h-3.1V29.8z M73,32.1c0,0,2.1,2.4,5.9,2.4c3.6,0,5.7-2.3,5.7-5.1
		c0-5.5-8.1-4.8-8.1-7.8c0-1.2,1.1-2.1,2.6-2.1c2.2,0,3.8,1.5,3.8,1.5l1.4-2.6c0,0-1.7-1.8-5.1-1.8c-3.3,0-5.8,2.1-5.8,5
		c0,5.3,8.1,4.8,8.1,7.8c0,1.4-1.2,2.1-2.5,2.1c-2.4,0-4.3-1.8-4.3-1.8L73,32.1z"/>
	<path class="st0" d="M10.6,19.2c-0.5,0-0.8,0.8-0.8,1.8c0,1,0.4,1.8,0.8,1.8s0.8-0.8,0.8-1.8C11.5,20,11.1,19.2,10.6,19.2"/>
	<path class="st0" d="M40.5,6c0-3.5-3.1-6-6-6c-4.8,0-6,3.7-6,3.9l-1,3.4l-0.9-3.4c0-0.2-1.2-3.9-6-3.9c-2.8,0-6,2.5-6,6l0,0.1l0,0
		c0,0.5,0.1,1.1,0.2,1.7c0.2,0.9,0.4,1.7,0.8,2.6c2.6,6.4,10.2,11.3,12.2,12.6c1.9-1.2,9-6.1,11.7-12.3c0.4-0.9,0.7-1.9,0.9-2.9
		c0.1-0.6,0.2-1.2,0.2-1.7V6z"/>
	<path class="st0" d="M53,28.8c-0.5-0.4-0.2-0.4-0.3-0.5c-0.1,0.1,0.1-0.5,0.5-1.2c0,0.1,0,0.2,0,0.3C53.2,28.6,53,29.1,53,28.8
		 M11,24.3c-0.9,0-1.6-1.5-1.6-3.4s0.7-3.4,1.6-3.4c0.9,0,1.6,1.5,1.6,3.4S11.9,24.3,11,24.3 M59,26.4c-0.1-0.4-0.5-1.3-1.4-2
		c-0.8-1-2.7-0.8-3.5-0.1c0-0.1-0.1-0.2-0.1-0.3c-0.9-1.6-2.6-0.6-2.7-0.4c-0.3,0.2-0.6,0.5-0.8,0.7c0,0,0-0.1,0-0.1
		c-1.1-5.1-4.5-9.6-9.3-12.6c-3.4,7.6-12.5,13-12.9,13.3l-0.5,0.3L27.3,25c-0.5-0.3-10.1-5.8-13.4-13.7c-4.5,2.6-7.8,6.4-9.4,10.9
		H1.8c-1,0-1.8,0.8-1.8,1.8v7.6c0,1,0.8,1.8,1.8,1.8h2.7c0.9,2.5,2.3,4.8,4.2,6.8v7.1c0,1.4,1.1,2.5,2.5,2.5H16
		c1.4,0,2.5-1.1,2.5-2.5v-0.9c2.7,0.9,5.6,1.4,8.7,1.4c3.1,0,6.1-0.5,8.8-1.4v0.9c0,1.4,1.1,2.5,2.5,2.5h4.8c1.4,0,2.5-1.1,2.5-2.5
		v-7.2c2.8-3,4.6-6.7,5-10.8c0.1-2,0-3-0.1-3.9c0.4-0.3,0.8-0.6,1.3-1c0.3-0.2,0.7-0.5,0.9,0c0.1,0.2,0.1,0.4,0.2,0.6
		c-1.2,1.3-1.7,2.8-1.6,2.9c0-0.2-0.1,1.1,0.8,1.6c0.3,0.6,1.9,0.2,1.9-0.6c0.2-0.6,0.2-1.2,0.3-1.7c0-0.6,0-1.1-0.1-1.7
		c0.1-0.1,0.2-0.2,0.3-0.3c1.6-1.5,2.9,0.8,3,1.3c0.2,1.1,0.3,1.9-0.1,3C58.7,29.2,59.4,28.1,59,26.4"/>
</g>
</svg>
