<?xml version="1.0" encoding="utf-8"?>
<!-- Generator: Adobe Illustrator 27.5.0, SVG Export Plug-In . SVG Version: 6.00 Build 0)  -->
<svg version="1.1" id="Layer_1" xmlns="http://www.w3.org/2000/svg" xmlns:xlink="http://www.w3.org/1999/xlink" x="0px" y="0px"
	 viewBox="0 0 123 54" style="enable-background:new 0 0 123 54;" xml:space="preserve">
<style type="text/css">
	.st0{fill:#87946B;}
	.st1{fill:#FFFFFF;}
</style>
<g>
	<path class="st0" d="M25.2,0.8C22,0.8,16.3,0,13.4,0C5.9,0,0,5.4,0,12.4v28.8c0,6.9,5.9,12.4,13.4,12.4c2.9,0,8.6-0.8,11.8-0.8h3.2
		c3.2,0,8.9,0.8,11.8,0.8c7.5,0,13.4-5.4,13.4-12.4V26v-0.6c0-0.5,0.3-1.1,1.1-1.5l7.9-3.1c0.6-0.3,1.5-0.6,1.9-0.8
		c0.5-0.1,0.9-0.2,1.2-0.5c0.3-0.3,0.5-0.7,0.5-1.2l0,0c0-0.5-0.2-0.9-0.5-1.2c-0.3-0.3-0.7-0.4-1.2-0.5s-1.3-0.4-1.9-0.6l-8-3.3
		c-0.8-0.3-1.1-1-1.1-1.5V11c0-0.1,0-0.1,0-0.2v-0.3l0,0C52.6,4.6,47.1,0,40.2,0c-2.9,0-8.6,0.8-11.8,0.8H25.2z"/>
</g>
<g>
	<path class="st0" d="M84.5,19.8c5.1,0,9-3.9,9-9s-3.9-9.1-9-9.1s-9.1,4-9.1,9.1S79.4,19.8,84.5,19.8"/>
</g>
<g>
	<path class="st0" d="M121.2,15.3c-2-2.1-5.2-2.2-7.3-0.2c-1.7,1.7-3.2,3.8-4.9,5.4l-1.8,1.7c-1.2,1.2-2.7,2.2-4.1,3.3
		c-1.8,0.1-3.6,0.4-5.4,0.3l-5.9-0.1c-1.9,0-3.9-0.4-5.8-0.6C85.5,25,85,25,84.5,25c-3.5,0-6.6,1.5-8.8,3.9
		c-0.1,0.1-0.2,0.2-0.3,0.3c-1.5,1.5-2.8,3.5-4.3,5l-7.4,7.4c-1.5,1.5-3.5,2.8-5,4.3c-1.9,1.9-1.9,4.7,0,6.6c1.9,1.9,4.7,1.9,6.6,0
		c1.5-1.5,2.8-3.5,4.3-5l2.8-2.8c0.9-0.9,1.5-0.3,2,0.4l0,0c0.2,0.2,0.4,0.5,0.5,0.6l0,0c1.7,1.7,4.5,2.8,9.5,2.8
		c11.2,0,11.8-5.3,11.8-11.8c0-0.6-0.1-1.2-0.1-1.7h1.4c2.4,0.1,4.9,0.6,7.3,0.7l0,0c1.4,0.1,2.7-0.4,3.8-1.5
		c1.7-1.7,3.2-3.8,4.9-5.4l1.8-1.7c1.7-1.7,3.9-3,5.7-4.7C123.1,20.6,123.2,17.4,121.2,15.3"/>
</g>
<g>
	<path class="st1" d="M13.8,17h4.7l-1.7-5l-0.7-2c-0.1,0.6-0.4,1.3-0.6,2L13.8,17z M8.4,21.9c0-0.2,0.1-0.5,0.2-0.8
		c0.2-0.5,0.5-1.1,0.7-1.5l4.3-11.4C13.7,7.9,13.8,7.6,14,7c0.3-1,1.1-1.3,2.2-1.3h0.3c1,0,1.9,0.4,2.2,1.3c0.2,0.5,0.3,0.9,0.4,1.2
		l4.3,11.4c0.2,0.4,0.4,0.9,0.7,1.5c0.1,0.3,0.2,0.6,0.2,0.8c0,1.1-0.8,2-2,2c-0.8,0-1.6-0.5-1.9-1.4c-0.2-0.5-0.1-0.9-0.5-2
		l-0.2-0.7H13l-0.2,0.7c-0.4,1.1-0.3,1.4-0.5,1.9c-0.3,0.9-1,1.4-1.9,1.4C9.1,23.9,8.4,23,8.4,21.9"/>
</g>
<g>
	<path class="st1" d="M35.1,10.5c-0.1,0-0.3,0-0.4-0.1l-2.5-2.5c-0.2-0.2-0.2-0.5,0-0.7C32.5,7,32.8,7,33,7.2l2.5,2.5
		c0.2,0.2,0.2,0.5,0,0.7C35.4,10.5,35.2,10.5,35.1,10.5 M37.2,10.1c0.1,0.2,0.5,0.9,1.2,0.9h3.3c0.1,0,0.5-0.1,0.5-0.9V8.7h-5V10.1z
		 M38.4,12c-1.6,0-2.2-1.6-2.2-1.7c0-0.1,0-0.1,0-0.2V8.7h-0.7c-0.3,0-0.5-0.2-0.5-0.5s0.2-0.5,0.5-0.5h0.7V5.9
		c0-0.3,0.2-0.5,0.5-0.5s0.5,0.2,0.5,0.5v1.9h5V6.3c0-0.3,0.2-0.5,0.5-0.5s0.5,0.2,0.5,0.5v1.4h1.9c0.3,0,0.5,0.2,0.5,0.5
		c0,0.3-0.2,0.5-0.5,0.5h-1.9v1.4c0,1.4-1,1.9-1.5,1.9H38.4z M34.9,12.1c-0.1,0-0.1,0-0.2,0l-2.4-0.9C32,11,31.9,10.7,32,10.5
		c0.1-0.3,0.4-0.4,0.7-0.3l2.4,0.9c0.3,0.1,0.4,0.4,0.3,0.7C35.2,11.9,35.1,12.1,34.9,12.1 M32.6,23.1c-0.3,0-0.5-0.2-0.5-0.5
		s0.2-0.5,0.5-0.5c1.5,0,1.6-1.4,1.6-1.6v-6.8c0-0.7,0.5-1.2,0.7-1.3s0.6,0,0.7,0.2c0.1,0.2,0,0.5-0.2,0.7c0,0-0.2,0.1-0.2,0.4v6.8
		C35.2,21.4,34.6,23.1,32.6,23.1 M40.3,13.5v2h2.3l0.1-0.1v-1.7c0-0.2-0.2-0.2-0.3-0.2H40.3z M37.2,13.5L37.2,13.5v0.1v1.6
		c0,0.1,0,0.3,0.3,0.3h1.7v-2L37.2,13.5z M45.1,23.3c-3.4,0-4.9-0.7-5.5-1.4c-0.5,0.8-1.5,1.4-2.9,1.4c-0.3,0-0.5-0.2-0.5-0.5
		s0.2-0.5,0.5-0.5c2.6,0,2.6-2.5,2.6-2.6v-0.2h-2.9c-0.3,0-0.5-0.2-0.5-0.5s0.2-0.5,0.5-0.5h2.9v-0.8h-0.8c-0.3,0-0.5-0.2-0.5-0.5
		s0.2-0.5,0.5-0.5h0.8v-0.2h-1.7c-0.5,0-1.3-0.4-1.3-1.3v-1.5c0-0.2-0.1-0.5,0.2-0.9c0.2-0.2,0.4-0.3,0.7-0.3h5.3
		c0.5,0.1,1.2,0.4,1.2,1.2v1.7c0,0.4-0.3,1.1-1.1,1.1h-2.3v0.2h1.2c0.3,0,0.5,0.2,0.5,0.5s-0.2,0.5-0.5,0.5h-1.2v0.8H45
		c0.3,0,0.5,0.2,0.5,0.5s-0.2,0.5-0.5,0.5h-4.7v0.2c0,0.3-0.1,0.8-0.2,1.2c0.1,0.4,1.3,1.4,5,1.4c0.3,0,0.5,0.2,0.5,0.5
		C45.6,23.1,45.4,23.3,45.1,23.3"/>
</g>
<g>
	<path class="st1" d="M11.3,37.1c-1.2,1.9-2.4,4.3-1.8,6.6c0.5,1.8,2.3,2.8,3.9,3.3c1.5,0.5,3.1,0.3,4.5-0.5s2.3-2.4,2.9-3.9
		c0.4-1.1,0.5-2.1,0.5-3.2v-3.8c0-0.6,0-1.1-0.4-1.7c-0.4-0.5-1.3-0.7-1.9-0.5s-1,0.9-1.3,1.4c-0.6,1-1.1,2.1-1.3,3.3l0,0
		c1.3,0,2.5-0.1,3.8-0.1c0.2,0,0.5-0.7,0.6-0.8c0,0,0.5-0.9,0.4-0.9c-1,0-2.1,0.1-3.1,0.1c-0.2,0-0.4,0-0.6,0c-0.1,0-0.1,0.1,0-0.1
		c0.1-0.2,0.1-0.5,0.2-0.7s0.1-0.3,0.2-0.5c-0.3,0.7-0.2,0.2,0.2,0.1c1-0.4,2.3,0.4,2.4,1.5c0,0.9,0,1.9,0,2.8v2.8
		c0,0.5-0.1,1-0.3,1.4c-0.2,0.6,0.3-0.3-0.1,0.2c-0.1,0.2-0.3,0.3-0.5,0.4c-0.6,0.6-1.4,0.9-2.3,1c-1.7,0.3-3.5-0.2-4.9-1.2
		c-1.5-1-2.1-2.6-1.9-4.4c0.1-0.6,0.3-1.2,0.5-1.7c0-0.1,0.3-0.5,0.1-0.2c0-0.1,0,0.1-0.1,0.2c0.2-0.4,0.5-0.8,0.7-1.2
		C11.7,36.5,11.3,37,11.3,37.1"/>
</g>
<g>
	<path class="st1" d="M16.3,31.2c0-0.7,0.6-1.3,1.3-1.3c0.7,0,1.3,0.6,1.3,1.3c0,0.7-0.6,1.3-1.3,1.3S16.3,31.9,16.3,31.2"/>
</g>
<g>
	<path class="st1" d="M19.8,31.2c0-0.7,0.6-1.3,1.3-1.3c0.7,0,1.3,0.6,1.3,1.3c0,0.7-0.6,1.3-1.3,1.3S19.8,31.9,19.8,31.2"/>
</g>
<g>
	<path class="st1" d="M36.1,45c0-1.2,1-2.1,2.2-2.1s2.2,0.9,2.2,2.1c0,1.2-1,2.1-2.2,2.1C37.1,47.2,36.1,46.2,36.1,45 M40.3,38
		c-0.2,0.2-0.4,0.5-0.4,0.8s0.2,0.6,0.2,1.2c0,0.9-0.8,1.7-1.9,1.7c-1.4,0-2.2-1.2-2.2-2.7c0-1.7,0.9-3,3-4.3
		c1.5-0.9,1.9-1.5,1.9-2.4c0-1-0.9-2-2.3-2c-1.5,0-2.4,0.9-2.4,1.7c0,0.5,0.3,0.7,0.3,1.3c0,1-0.7,1.7-1.7,1.7
		c-1.2,0-2.1-1.1-2.1-2.9c0-2.6,2.5-5.1,6.1-5.1c4,0,6.2,2.6,6.2,5.2c0,2-1.3,3.7-3.2,4.9C41,37.5,40.5,37.8,40.3,38"/>
</g>
</svg>
